<?xml version="1.0" encoding="UTF-8"?>
<!DOCTYPE svg PUBLIC "-//W3C//DTD SVG 1.1//EN" "http://www.w3.org/Graphics/SVG/1.1/DTD/svg11.dtd">
<!-- Creator: CorelDRAW 2018 (64 Bit) -->
<svg xmlns="http://www.w3.org/2000/svg" xml:space="preserve" width="996px" height="704px" version="1.1" style="shape-rendering:geometricPrecision; text-rendering:geometricPrecision; image-rendering:optimizeQuality; fill-rule:evenodd; clip-rule:evenodd"
viewBox="0 0 996 704"
 xmlns:xlink="http://www.w3.org/1999/xlink">
 <defs>
  <style type="text/css">
   <![CDATA[
    .str2 {stroke:#FAFBEE;stroke-width:7.87;stroke-miterlimit:10}
    .str0 {stroke:#FAFBEE;stroke-width:3.38;stroke-miterlimit:10}
    .str1 {stroke:#FAFBEE;stroke-width:2.57;stroke-miterlimit:10}
    .str4 {stroke:#F9A037;stroke-width:2.61;stroke-miterlimit:10}
    .str5 {stroke:#FCDED6;stroke-width:2.7;stroke-miterlimit:10}
    .str3 {stroke:#2C2A2C;stroke-width:2.7;stroke-miterlimit:10}
    .str6 {stroke:#2C2A2C;stroke-width:2.15;stroke-linecap:round;stroke-linejoin:round;stroke-miterlimit:10}
    .fil2 {fill:none;fill-rule:nonzero}
    .fil1 {fill:#FCDED6;fill-rule:nonzero}
    .fil6 {fill:#FDC585;fill-rule:nonzero}
    .fil3 {fill:#F9A037;fill-rule:nonzero}
    .fil4 {fill:#FAFBEE;fill-rule:nonzero}
    .fil5 {fill:#4B72B7;fill-rule:nonzero}
    .fil7 {fill:#2C2A2C;fill-rule:nonzero}
    .fil0 {fill:#7BB9D8;fill-rule:nonzero}
   ]]>
  </style>
 </defs>
 <g id="Camada_x0020_1">
  <metadata id="CorelCorpID_0Corel-Layer"/>
  <g id="_2039481989120">
   <path class="fil0" d="M211.02 221.25l-199.04 0c-4.24,0 -7.69,-3.44 -7.69,-7.69l0 0c0,-4.25 3.45,-7.69 7.69,-7.69l199.04 0c4.24,0 7.69,3.44 7.69,7.69l0 0c0,4.25 -3.45,7.69 -7.69,7.69z"/>
   <path class="fil0" d="M577.77 15.61l-129.67 0c-4.35,0 -7.87,-3.53 -7.87,-7.88l0 0c0,-4.34 3.52,-7.87 7.87,-7.87l129.67 0c4.35,0 7.87,3.53 7.87,7.87l0 0c0,4.35 -3.52,7.88 -7.87,7.88z"/>
   <path class="fil0" d="M100.61 322.75l-22.88 0c-6.01,0 -10.89,-4.87 -10.89,-10.89l0 -21.47c0,-6.02 4.88,-10.89 10.89,-10.89l22.88 0c6.01,0 10.89,4.87 10.89,10.89l0 21.47c0,6.02 -4.88,10.89 -10.89,10.89z"/>
   <path class="fil0" d="M766.17 704.14l-12.48 0c-3.28,0 -5.94,-2.66 -5.94,-5.94l0 -11.72c0,-3.28 2.66,-5.94 5.94,-5.94l12.48 0c3.28,0 5.94,2.66 5.94,5.94l0 11.72c0,3.28 -2.66,5.94 -5.94,5.94z"/>
   <path class="fil0" d="M990.06 203.72l-12.48 0c-3.28,0 -5.94,-2.66 -5.94,-5.94l0 -11.72c0,-3.28 2.66,-5.94 5.94,-5.94l12.48 0c3.28,0 5.94,2.66 5.94,5.94l0 11.72c0,3.28 -2.66,5.94 -5.94,5.94z"/>
   <polygon class="fil0" points="117.18,565.8 54.15,598.45 72.31,607.25 49.76,634.21 67.35,648.61 89.14,619.66 103.74,635.32 "/>
   <path class="fil0" d="M336.67 701.65l-73.65 0c-5.45,0 -9.87,-4.42 -9.87,-9.87l0 0c0,-5.46 4.42,-9.88 9.87,-9.88l73.65 0c5.45,0 9.88,4.42 9.88,9.88l0 0c0,5.45 -4.43,9.87 -9.88,9.87z"/>
   <path class="fil1" d="M809.34 631.69l-593.15 0c-6.87,0 -12.44,-5.57 -12.44,-12.44l0 -494.04c0,-6.86 5.57,-12.43 12.44,-12.43l593.15 0c6.87,0 12.44,5.57 12.44,12.43l0 494.04c0,6.87 -5.57,12.44 -12.44,12.44z"/>
   <line class="fil2 str0" x1="203.75" y1="175.22" x2="821.78" y2= "175.22" />
   <path class="fil3 str0" d="M809.34 631.69l-593.15 0c-6.87,0 -12.44,-5.57 -12.44,-12.44l0 -494.04c0,-6.86 5.57,-12.43 12.44,-12.43l593.15 0c6.87,0 12.44,5.57 12.44,12.43l0 494.04c0,6.87 -5.57,12.44 -12.44,12.44z"/>
   <path class="fil2 str0" d="M264.71 144.63c0,4.82 -3.9,8.72 -8.71,8.72 -4.81,0 -8.71,-3.9 -8.71,-8.72 0,-4.81 3.9,-8.71 8.71,-8.71 4.81,0 8.71,3.9 8.71,8.71z"/>
   <path class="fil2 str0" d="M298.57 144.63c0,4.82 -3.9,8.72 -8.71,8.72 -4.81,0 -8.71,-3.9 -8.71,-8.72 0,-4.81 3.9,-8.71 8.71,-8.71 4.81,0 8.71,3.9 8.71,8.71z"/>
   <path class="fil2 str0" d="M332.44 144.63c0,4.82 -3.9,8.72 -8.72,8.72 -4.81,0 -8.71,-3.9 -8.71,-8.72 0,-4.81 3.9,-8.71 8.71,-8.71 4.82,0 8.72,3.9 8.72,8.71z"/>
   <path class="fil0" d="M332.06 538.17l-314.05 0c-9.95,0 -18.01,-8.07 -18.01,-18.01l0 -116.43c0,-9.94 8.06,-18 18.01,-18l314.05 0c9.95,0 18.01,8.06 18.01,18l0 116.43c0,9.94 -8.06,18.01 -18.01,18.01z"/>
   <path class="fil2 str1" d="M42.45 414.03c0,3.66 -2.96,6.63 -6.63,6.63 -3.66,0 -6.63,-2.97 -6.63,-6.63 0,-3.66 2.97,-6.63 6.63,-6.63 3.67,0 6.63,2.97 6.63,6.63z"/>
   <path class="fil2 str1" d="M68.21 414.03c0,3.66 -2.96,6.63 -6.63,6.63 -3.66,0 -6.62,-2.97 -6.62,-6.63 0,-3.66 2.96,-6.63 6.62,-6.63 3.67,0 6.63,2.97 6.63,6.63z"/>
   <path class="fil2 str1" d="M93.98 414.03c0,3.66 -2.97,6.63 -6.63,6.63 -3.67,0 -6.63,-2.97 -6.63,-6.63 0,-3.66 2.96,-6.63 6.63,-6.63 3.66,0 6.63,2.97 6.63,6.63z"/>
   <line class="fil2 str1" x1="0" y1="439.12" x2="350.07" y2= "439.12" />
   <path class="fil0" d="M896.47 192.23l-140.89 0c-11.76,0 -21.29,-9.53 -21.29,-21.29l0 -113.65c0,-11.76 9.53,-21.29 21.29,-21.29l140.89 0c11.76,0 21.29,9.53 21.29,21.29l0 113.65c0,11.76 -9.53,21.29 -21.29,21.29z"/>
   <path class="fil4" d="M814.45 75.66c-13.52,0 -24.52,11 -24.52,24.52 0,13.52 11,24.52 24.52,24.52 13.52,0 24.52,-11 24.52,-24.52 0,-13.52 -11,-24.52 -24.52,-24.52zm0 56.23c-17.48,0 -31.7,-14.23 -31.7,-31.71 0,-17.48 14.22,-31.7 31.7,-31.7 17.48,0 31.7,14.22 31.7,31.7 0,17.48 -14.22,31.71 -31.7,31.71z"/>
   <polygon class="fil4" points="841.11,131.99 831.75,122.63 836.83,117.55 846.19,126.91 "/>
   <path class="fil4" d="M851.01 125.57l18.52 18.53c1.96,1.96 1.96,5.15 0,7.11l-4.12 4.12c-1.97,1.96 -5.15,1.96 -7.12,0l-18.52 -18.52c-1.96,-1.97 -1.96,-5.15 0,-7.12l4.12 -4.12c1.97,-1.96 5.15,-1.96 7.12,0z"/>
   <path class="fil0" d="M149.98 143.25l-80.98 0c-13.57,0 -24.58,-11.01 -24.58,-24.58l0 -68.67c0,-13.57 11.01,-24.58 24.58,-24.58l80.98 0c13.57,0 24.58,11.01 24.58,24.58l0 68.67c0,13.57 -11.01,24.58 -24.58,24.58z"/>
   <path class="fil4" d="M109.49 62.87c-10.63,0 -19.28,8.65 -19.28,19.28 0,10.63 8.65,19.28 19.28,19.28 10.63,0 19.28,-8.65 19.28,-19.28 0,-10.63 -8.65,-19.28 -19.28,-19.28zm0 46.85c-15.2,0 -27.57,-12.37 -27.57,-27.57 0,-15.2 12.37,-27.57 27.57,-27.57 15.2,0 27.57,12.37 27.57,27.57 0,15.2 -12.37,27.57 -27.57,27.57z"/>
   <line class="fil2 str2" x1="125.74" y1="62.87" x2="94.13" y2= "101.43" />
   <path class="fil5" d="M545.06 447.17l-1.29 -17.45 -108.79 5.35 0 16.84c0,0 -24.47,23.28 -34.13,178.16l195.83 0c0,0 21.49,-137.07 -51.62,-182.9z"/>
   <line class="fil2 str3" x1="434.98" y1="451.91" x2="545.06" y2= "447.17" />
   <polyline class="fil2 str3" points="457.47,523.32 480.02,532.5 492.09,630.07 "/>
   <path class="fil6" d="M316.04 413.44l30.06 -99.22 66.11 24.78 -31.72 95.02c-6.5,19.63 -28.93,28.89 -47.38,19.56 -14.71,-7.44 -21.92,-24.39 -17.07,-40.14z"/>
   <path class="fil4" d="M362.41 261.24c5.95,-19.35 26.71,-29.93 45.86,-23.39 18.62,6.36 28.64,26.53 22.46,45.21l-18.52 55.94 -66.11 -24.78 16.31 -52.98z"/>
   <path class="fil6" d="M367.08 405.99l-75.5 -143.16c0,0 1.72,-25.87 -41.25,-27.42l0.01 0.04c-0.58,-0.03 -1.17,-0.08 -1.75,-0.08l-14.37 0c-2.66,0 -5.09,1.88 -5.46,4.52 -0.42,3.06 1.72,5.69 4.6,6.05l14.48 2.05 -19.7 5.26 -3.68 1.36 -26.84 -17.73c-2.14,-1.53 -5.13,-0.83 -6.37,1.49 -0.97,1.82 -0.53,4.07 1.05,5.39 1.66,1.38 4.32,3.66 7.23,6.18l-5.93 -3.55c-2.25,-1.35 -5.17,-0.41 -6.22,2 -0.82,1.89 -0.21,4.09 1.47,5.28 1.45,1.02 3.31,2.34 5.29,3.73l-2.06 -0.81c-2.25,-0.88 -4.93,-0.24 -6.3,1.75 -1.88,2.71 -0.75,6.4 2.22,7.64l29.33 12.28c5.06,2.12 9.9,3.44 15.86,2.03l26.14 -6.16 58.5 163.74 49.25 -31.88z"/>
   <line class="fil2 str4" x1="336.1" y1="347.24" x2="350.07" y2= "373.73" />
   <path class="fil4" d="M421.18 236.27l-28.06 2.1c0,0 -40.64,55.12 41.86,196.7l108.79 -5.35 8.2 -152.53 -13.43 -43.31 -48.75 0 -68.61 2.39z"/>
   <path class="fil2 str5" d="M389.33 330.43c0,0 -8.1,-17.03 -2.9,-54.75"/>
   <path class="fil6" d="M641.87 393.52l-45.19 -93.31 -61.42 34.81 46.17 88.89c9.48,18.37 33.08,24.02 49.84,11.92 13.37,-9.64 17.84,-27.51 10.6,-42.31z"/>
   <path class="fil4" d="M572.3 250.43c-8.9,-18.18 -31.07,-25.39 -48.96,-15.94 -17.4,9.18 -24.14,30.68 -15.12,48.16l27.04 52.37 61.42 -34.81 -24.38 -49.78z"/>
   <line class="fil2 str5" x1="535.26" y1="335.02" x2="512.94" y2= "291.78" />
   <path class="fil6" d="M736.17 233.89c-1.37,-1.99 -4.04,-2.63 -6.3,-1.75l-13.13 5.13 12.33 -10.43c2.04,-1.73 2.62,-4.78 1.07,-6.97 -1.77,-2.5 -5.16,-2.88 -7.41,-1.06l-11.47 9.23 9.77 -12.78c1.63,-2.13 1.54,-5.23 -0.44,-7.03 -2.26,-2.07 -5.66,-1.72 -7.47,0.54l-19.31 20.03 -19.7 -5.26 14.48 -2.05c2.88,-0.36 5.02,-2.99 4.6,-6.05 -0.37,-2.64 -2.8,-4.52 -5.46,-4.52l-14.37 0c-8.48,0 -16.76,2.96 -23.04,8.6 -0.11,0.08 -0.2,0.13 -0.31,0.22 -8.82,6.95 -5.61,21.2 -5.61,21.2l-54.11 153.2 53.63 23.79 30.92 -164.53 19.74 0.04c1.22,0.11 2.45,0.11 3.68,0.01l0.15 0 -0.01 -0.01c2.12,-0.19 4.22,-0.69 6.22,-1.53l29.33 -10.38c2.98,-1.24 4.1,-4.93 2.22,-7.64z"/>
   <line class="fil2 str4" x1="611.31" y1="330.43" x2="599.63" y2= "371.22" />
   <path class="fil7" d="M419 109.89c-3.38,2.32 -26.06,8.21 -26.51,12.33 0,0 7.46,29.17 -0.18,34.61 -20.66,14.72 -27.28,43.57 -27.28,43.57 0,0 54.51,40.82 199.41,-2.04 0,0 1.73,-17.36 -24.62,-29.96 -7.52,-3.59 -14.21,-9.02 -18.44,-16.38 -3.27,-5.7 -3.77,-8.12 -4.63,-13.23 -2.43,-14.31 -41.91,-67.21 -97.75,-28.9z"/>
   <path class="fil6" d="M421.14 153.61c0.67,9.57 -6.55,17.87 -16.12,18.54 -9.58,0.66 -17.88,-6.56 -18.54,-16.13 -0.67,-9.57 6.55,-17.87 16.12,-18.54 9.57,-0.67 17.87,6.56 18.54,16.13z"/>
   <path class="fil6" d="M428.99 196.17l2.41 37.79c0.81,13.28 6.24,22.32 19.3,21.41l0 0c11.14,-0.78 24.4,-9.71 25.02,-20.86l-6.65 -59.29 -40.08 20.95z"/>
   <path class="fil6" d="M421.18 236.27l68.61 -2.39c0,0 -1.67,33.73 -42.44,30.57 -28.35,-2.19 -26.17,-28.18 -26.17,-28.18z"/>
   <polygon class="fil3" points="430.97,227.3 474.82,184.43 428.67,192.3 "/>
   <path class="fil6" d="M440.49 202.28l0 0c-22.32,0.06 -40.76,-17.52 -41.43,-35.75l-1.31 -43.02c-0.84,-22.85 16.6,-42.25 39.41,-43.84l0 0c23.35,-1.62 47.69,15.71 49.32,39.06l0.68 34.62c0.53,26.77 -19.95,47.07 -46.67,48.93z"/>
   <polyline class="fil2 str6" points="422.48,151.39 421.18,162.07 426.71,162.27 "/>
   <path class="fil7" d="M444.53 125.31c0,0 -12.33,-1.01 -12.45,4.01 0,0 0.01,3.4 10.77,4.07 10.76,0.67 13.56,-0.11 14.54,-3.31 0.98,-3.19 -7.07,-4.74 -12.86,-4.77z"/>
   <path class="fil7" d="M408.77 132.64c0,0 9.34,-0.75 10.22,3.76 0,0 0.53,3.06 -7.66,3.53 -8.18,0.47 -10.71,-0.55 -10.87,-3.13 -0.18,-3.08 3.86,-4.2 8.31,-4.16z"/>
   <path class="fil7" d="M414.2 147.31c0.07,2.18 -1.64,4 -3.82,4.08 -2.18,0.07 -4,-1.64 -4.08,-3.82 -0.07,-2.18 1.64,-4.01 3.82,-4.08 2.18,-0.07 4,1.64 4.08,3.82z"/>
   <path class="fil7" d="M447.34 146.23c0.07,2.17 -1.63,4 -3.81,4.07 -2.18,0.07 -4.01,-1.64 -4.08,-3.82 -0.07,-2.17 1.64,-4 3.82,-4.07 2.18,-0.07 4,1.64 4.07,3.82z"/>
   <path class="fil2 str6" d="M435.8 169.7c0,0 -5.84,-2.66 -12.88,3.42"/>
   <path class="fil7" d="M450.98 72.28c-5.57,-0.3 -11.18,0.31 -16.57,1.75 -13.37,3.56 -37.38,13.46 -41.5,39.15 -1.37,6.77 -0.42,9.04 -0.42,9.04 0,0 44.85,1.76 71.36,-10.76 3.82,16.15 7.35,26.15 23.31,41.89l14.17 -21.3 15.95 14.31c0.1,0.54 0.08,-70.55 -66.3,-74.08z"/>
   <path class="fil6" d="M510.43 153.78c0.66,9.58 -6.56,17.87 -16.13,18.54 -9.58,0.67 -17.88,-6.55 -18.54,-16.13 -0.67,-9.57 6.55,-17.87 16.13,-18.54 9.57,-0.66 17.87,6.56 18.54,16.13z"/>
   <path class="fil2 str6" d="M486.46 159.95c0,0 -0.88,-12.56 11.28,-11.42"/>
  </g>
 </g>
</svg>
